<svg version="1.0" xmlns="http://www.w3.org/2000/svg"
 width="300.000000pt" height="300.000000pt" viewBox="0 0 300.000000 300.000000"
 preserveAspectRatio="xMidYMid meet">
<g transform="translate(0.000000,300.000000) scale(0.100000,-0.100000)"
>
<path d="M1249 2595 c-152 -29 -289 -89 -414 -182 -192 -143 -322 -335 -387
-571 -18 -64 -22 -105 -22 -247 -1 -147 2 -181 22 -255 100 -368 375 -642 744
-742 114 -31 365 -33 478 -4 152 39 278 101 416 204 l40 31 268 -260 268 -259
39 31 c21 17 42 36 46 42 4 7 -101 116 -263 274 -207 201 -267 265 -259 276
111 152 173 279 211 427 29 113 27 364 -4 477 -53 196 -134 336 -277 478 -133
134 -273 214 -460 265 -104 29 -333 36 -446 15z m409 -136 c164 -43 281 -109
405 -228 279 -268 352 -698 177 -1043 -206 -405 -686 -595 -1108 -438 -255 95
-452 296 -538 551 -127 374 -3 769 316 1012 109 82 282 152 415 167 98 12 243
2 333 -21z"/>
</g>
</svg>
