<?xml version="1.0" standalone="no"?>
<!DOCTYPE svg PUBLIC "-//W3C//DTD SVG 20010904//EN"
 "http://www.w3.org/TR/2001/REC-SVG-20010904/DTD/svg10.dtd">
<svg version="1.0" xmlns="http://www.w3.org/2000/svg"
 width="300.000000pt" height="300.000000pt" viewBox="0 0 300.000000 300.000000"
 preserveAspectRatio="xMidYMid meet">
<metadata>
Created by potrace 1.10, written by Peter Selinger 2001-2011
</metadata>
<g transform="translate(0.000000,300.000000) scale(0.100000,-0.100000)"
fill="#000000" stroke="none">
<path d="M490 2280 l0 -50 1136 0 1135 0 -3 48 -3 47 -1132 3 -1133 2 0 -50z"/>
<path d="M490 1500 l0 -50 765 0 765 0 0 50 0 50 -765 0 -765 0 0 -50z"/>
<path d="M498 785 c-5 -5 -8 -30 -8 -57 l0 -48 375 0 375 0 0 50 0 50 -233 0
c-129 0 -294 3 -368 6 -74 4 -137 3 -141 -1z"/>
</g>
</svg>
