<?xml version="1.0" standalone="no"?>
<!DOCTYPE svg PUBLIC "-//W3C//DTD SVG 20010904//EN"
 "http://www.w3.org/TR/2001/REC-SVG-20010904/DTD/svg10.dtd">
<svg version="1.0" xmlns="http://www.w3.org/2000/svg"
 viewBox="0 0 300.000000 300.000000"
 preserveAspectRatio="xMidYMid meet">
<g transform="translate(0.000000,300.000000) scale(0.100000,-0.100000)"
fill="#000000" stroke="none">
<path d="M664 2575 c-8 -19 3 -2225 10 -2233 6 -5 82 48 311 218 250 185 458
338 506 373 l39 28 412 -294 c227 -162 425 -302 441 -312 l27 -17 0 103 c1
339 -24 2125 -29 2131 -3 3 -390 10 -858 14 -813 6 -853 6 -859 -11z m1612
-100 c8 -2 13 -217 18 -727 3 -397 9 -833 13 -967 4 -178 3 -243 -5 -240 -6 2
-179 123 -383 269 -205 146 -379 266 -388 268 -9 1 -182 -121 -386 -272 -203
-151 -371 -273 -372 -272 -1 1 -6 1938 -4 1947 1 6 1488 0 1507 -6z"/>
</g>
</svg>
