<?xml version="1.0" standalone="no"?>
<!DOCTYPE svg PUBLIC "-//W3C//DTD SVG 20010904//EN"
 "http://www.w3.org/TR/2001/REC-SVG-20010904/DTD/svg10.dtd">
<svg version="1.0" xmlns="http://www.w3.org/2000/svg"
 width="300.000000pt" height="300.000000pt" viewBox="0 0 300.000000 300.000000"
 preserveAspectRatio="xMidYMid meet">
<g transform="translate(0.000000,300.000000) scale(0.100000,-0.100000)"
>
<path d="M1295 2740 c-241 -48 -432 -150 -614 -325 -203 -196 -321 -437 -358
-731 -15 -114 -15 -148 -5 -243 62 -557 447 -981 987 -1087 119 -23 340 -23
450 0 258 54 475 174 650 357 222 234 335 517 335 839 0 521 -323 974 -820
1148 -179 63 -437 80 -625 42z m490 -109 c149 -38 291 -104 405 -190 371 -279
531 -746 408 -1191 -16 -60 -69 -195 -81 -206 -2 -2 -52 45 -112 104 -116 113
-171 147 -314 197 -268 94 -730 109 -1036 34 -206 -51 -295 -103 -467 -271
-27 -27 -51 -48 -53 -48 -8 0 -42 75 -63 140 -59 179 -69 408 -28 592 100 441
443 767 898 854 103 19 337 12 443 -15z m24 -1326 c189 -28 339 -80 446 -156
22 -16 78 -70 123 -119 l83 -90 -42 -57 c-59 -81 -171 -188 -264 -252 -94 -65
-247 -134 -358 -162 -106 -26 -324 -36 -437 -20 -220 33 -436 140 -603 300
-66 63 -167 189 -167 207 0 15 171 179 223 213 94 64 229 110 394 135 125 20
468 20 602 1z"/>
<path d="M1460 2380 c-376 -67 -521 -518 -252 -787 223 -224 613 -154 743 133
127 280 -48 606 -351 654 -72 11 -76 11 -140 0z m221 -132 c200 -92 272 -340
152 -521 -72 -109 -169 -160 -303 -161 -71 0 -94 4 -141 26 -241 112 -292 413
-99 591 80 74 142 97 250 94 67 -2 97 -8 141 -29z"/>
</g>
</svg>
