<?xml version="1.0" standalone="no"?>
<!DOCTYPE svg PUBLIC "-//W3C//DTD SVG 20010904//EN"
 "http://www.w3.org/TR/2001/REC-SVG-20010904/DTD/svg10.dtd">
<svg version="1.0" xmlns="http://www.w3.org/2000/svg"
 width="300.000000pt" height="300.000000pt" viewBox="0 0 300.000000 300.000000"
 preserveAspectRatio="xMidYMid meet">
<g transform="translate(0.000000,300.000000) scale(0.100000,-0.100000)"
>
<path d="M1420 2671 c-141 -45 -242 -160 -269 -306 -15 -79 -15 -901 0 -980
38 -207 242 -353 445 -318 136 23 241 101 297 221 l32 67 0 525 0 525 -29 57
c-38 76 -75 119 -138 161 -100 66 -226 84 -338 48z"/>
<path d="M715 1490 c-10 -11 -18 -33 -17 -49 1 -50 63 -263 98 -339 71 -155
207 -303 338 -367 66 -33 206 -75 248 -75 16 0 18 -9 18 -78 0 -44 3 -127 7
-185 l6 -107 126 0 c69 0 132 4 138 8 9 6 13 58 15 182 l3 173 65 13 c90 19
172 51 238 94 111 71 239 223 293 346 27 61 78 235 86 292 7 49 -14 82 -52 82
-44 0 -62 -30 -95 -154 -31 -117 -67 -206 -112 -269 -156 -224 -359 -309 -663
-278 -193 19 -285 60 -405 181 -106 106 -155 197 -202 382 -18 70 -41 137 -50
148 -23 26 -60 26 -83 0z"/>
</g>
</svg>
