<?xml version="1.0" standalone="no"?>
<!DOCTYPE svg PUBLIC "-//W3C//DTD SVG 20010904//EN"
 "http://www.w3.org/TR/2001/REC-SVG-20010904/DTD/svg10.dtd">
<svg version="1.0" xmlns="http://www.w3.org/2000/svg"
 viewBox="0 0 300.000000 300.000000"
 preserveAspectRatio="xMidYMid meet">
<g transform="translate(0.000000,300.000000) scale(0.100000,-0.100000)"
>
<path d="M1776 2558 c-3 -51 -9 -230 -13 -397 l-8 -305 -115 -17 c-269 -39
-450 -106 -650 -237 -115 -76 -278 -241 -362 -368 -62 -92 -174 -312 -232
-452 -47 -118 -110 -362 -92 -362 3 0 36 46 75 102 103 152 171 222 291 300
328 214 672 328 992 328 l130 0 -6 -387 -7 -388 47 50 c41 43 848 988 912
1067 21 25 22 31 10 46 -7 9 -83 98 -168 197 -86 99 -239 277 -341 395 -381
444 -426 495 -441 508 -14 11 -17 3 -22 -80z m512 -642 c182 -212 332 -391
332 -396 0 -5 -40 -56 -88 -112 -85 -100 -157 -185 -482 -566 l-155 -182 -5
280 c-3 191 -9 283 -16 291 -18 17 -169 31 -274 24 -330 -22 -634 -125 -946
-321 -48 -30 -90 -52 -93 -49 -10 11 107 230 169 317 149 208 353 366 587 454
97 37 250 71 388 88 96 12 123 19 136 34 16 21 28 226 29 501 l1 116 42 -46
c23 -25 192 -220 375 -433z"/>
</g>
</svg>
