<?xml version="1.0" standalone="no"?>
<!DOCTYPE svg PUBLIC "-//W3C//DTD SVG 20010904//EN"
 "http://www.w3.org/TR/2001/REC-SVG-20010904/DTD/svg10.dtd">
<svg version="1.0" xmlns="http://www.w3.org/2000/svg"
 width="300.000000pt" height="300.000000pt" viewBox="0 0 300.000000 300.000000"
 preserveAspectRatio="xMidYMid meet">
<g transform="translate(0.000000,300.000000) scale(0.100000,-0.100000)">
<path d="M1740 2550 c-69 -32 -286 -258 -559 -582 l-242 -288 -282 -2 -282 -3
-3 -612 c-2 -576 -1 -612 15 -617 10 -2 448 -6 973 -8 l955 -3 44 25 c52 30
65 53 124 235 106 326 137 454 137 574 0 170 -77 299 -212 355 -77 32 -134 38
-367 37 -206 -2 -233 0 -227 14 3 8 26 78 51 155 74 224 106 362 112 480 5 94
3 111 -17 157 -31 73 -59 96 -122 100 -39 3 -65 -2 -98 -17z m116 -101 c16
-18 19 -36 19 -113 -1 -109 -21 -198 -106 -466 -87 -276 -88 -279 -61 -301 21
-16 42 -17 285 -12 252 6 267 5 336 -16 91 -28 150 -81 172 -156 18 -65 16
-191 -5 -285 -40 -177 -158 -529 -183 -548 -13 -9 -135 -12 -527 -12 -281 0
-575 3 -653 7 l-143 6 1 516 0 516 250 295 c257 303 471 533 530 569 43 26 61
26 85 0z m-966 -1389 l0 -510 -210 0 -210 0 0 510 0 510 210 0 210 0 0 -510z"/>
</g>
</svg>
