<?xml version="1.0" standalone="no"?>
<!DOCTYPE svg PUBLIC "-//W3C//DTD SVG 20010904//EN"
 "http://www.w3.org/TR/2001/REC-SVG-20010904/DTD/svg10.dtd">
<svg version="1.0" xmlns="http://www.w3.org/2000/svg"
 viewBox="0 0 300.000000 300.000000"
 preserveAspectRatio="xMidYMid meet">

<g transform="translate(0.000000,300.000000) scale(0.100000,-0.100000)"
fill="#000000" stroke="none">
<path d="M643 2541 c-55 -26 -74 -57 -127 -221 -129 -392 -158 -530 -136 -665
21 -129 78 -213 179 -265 91 -45 153 -53 399 -51 122 1 222 -2 222 -6 0 -4
-18 -64 -40 -133 -60 -183 -109 -378 -119 -473 -21 -190 35 -307 148 -307 116
0 222 101 659 628 l227 272 282 0 283 0 0 609 c0 336 -3 612 -7 614 -5 3 -440
8 -968 11 -942 7 -961 6 -1002 -13z m1040 -91 l317 0 0 -517 0 -518 -258 -310
c-355 -426 -509 -585 -568 -585 -54 0 -70 128 -35 296 10 50 51 196 91 326 76
247 80 276 38 295 -15 6 -113 8 -273 5 -209 -4 -260 -2 -313 12 -145 37 -202
117 -202 285 0 115 37 264 142 576 36 108 50 132 80 139 13 3 167 3 343 0 176
-2 463 -4 638 -4z m835 -517 l2 -513 -210 0 -210 0 0 515 0 515 208 -2 207 -3
3 -512z"/>
</g>
</svg>
